<svg xmlns="http://www.w3.org/2000/svg" viewBox="0 0 1080 1920">
  <path
    d="m43 1915 5-22 11-31c11-34 11-35 2-41q-11-7-11-12l8-30a377 377 0 0 0 12-58l12-40q40-124 72-148l37-29q18-15 58-27a172 172 0 0 0 51-27l16-9q8-5 14-5l11-4 11-5q19-9 25-14 5-4 12-6l11-5 13-7c10-4 10-7 6-30-6-35-10-44-25-59-11-12-23-33-27-48-3-10-4-11-11-13q-29-5-32-60l-2-23q-4-20 4-29c7-8 6-26-5-71-3-12-4-15-5-28l-1-18a50 50 0 0 1 12-34l4-7q-1-2 9-17a113 113 0 0 1 50-38l21-10 28-11 15-4q29-11 44-5l9 2 7 2 10 3 10 4q6 4 11 4 14 2 30 20l12 9c6 3 17 14 20 19l7 9q7 7 10 22l5 16c2 9 3 13 3 26 2 27 3 39 6 50 2 4 2 4 11 5 34 4 27 105-8 122-8 4-8 3-10 18-1 11-5 26-6 30-3 7-1 58 3 80q11 53 51 62l14 6 23 10 6 3c8 2 20 9 27 16l15 10 11 5 9 5q16 5 31 16l10 8c3 1 19 10 26 16q8 5 16 7c13 3 40 15 40 17l4 5 7 9 8 9c23 21 29 31 48 77 17 43 25 72 30 104a445 445 0 0 0 13 64c6 22 11 36 20 54 8 15 8 17-6 24-9 5-9 6 0 30 13 36 68 32-397 32-407 0-407 0-408-10q-3-18-4-16l-7 21c-1 5-1 5-87 5s-86 0-85-5" />
</svg>
